<?xml version="1.0" encoding="utf-8"?>
<!-- Generator: Adobe Illustrator 21.1.0, SVG Export Plug-In . SVG Version: 6.00 Build 0)  -->
<svg version="1.1" id="Capa_1" xmlns="http://www.w3.org/2000/svg" xmlns:xlink="http://www.w3.org/1999/xlink" x="0px" y="0px"
	 viewBox="0 0 40 40" style="enable-background:new 0 0 40 40;" xml:space="preserve">
<style type="text/css">
	.st0{fill:#FFFFFF;}
	.st1{fill:none;stroke:url(#SVGID_1_);stroke-width:1.9791;stroke-linecap:round;stroke-miterlimit:10;}
	.st2{fill:url(#SVGID_2_);}
	.st3{fill:#383838;}
	.st4{font-family:'Roboto-Thin';}
	.st5{font-size:4.279px;}
	.st6{letter-spacing:2;}
</style>
<g>
	<path class="st0" d="M34,38H6c-2.8,0-5-2.3-5-5V7c0-2.8,2.3-5,5-5h28c2.8,0,5,2.3,5,5V33C39,35.7,36.8,38,34,38z"/>
	<g>
		<linearGradient id="SVGID_1_" gradientUnits="userSpaceOnUse" x1="6.9834" y1="16.3717" x2="33.0166" y2="16.3717">
			<stop  offset="0" style="stop-color:#79D4A9"/>
			<stop  offset="0.2" style="stop-color:#EADED0"/>
			<stop  offset="0.3" style="stop-color:#B588A5"/>
			<stop  offset="0.4" style="stop-color:#96B8BA"/>
			<stop  offset="0.6" style="stop-color:#696AAD"/>
			<stop  offset="0.7" style="stop-color:#60C7B6"/>
			<stop  offset="0.8" style="stop-color:#49B0AD"/>
			<stop  offset="0.9" style="stop-color:#125C89"/>
			<stop  offset="1" style="stop-color:#B588A5"/>
		</linearGradient>
		<path class="st1" d="M8,7.5c0,0,0,4.8,0,9.5s0.1,9.5,7.1,9.5s5.5-4.7,5.5-9.5s-0.2-8.5,0.7-9.6c0.7-0.8,0.8-1.3,4.3-1.2
			c7.1,0,6.5,6.6,6.5,6.6s0.8,6.4-6.4,6.4"/>
		<linearGradient id="SVGID_2_" gradientUnits="userSpaceOnUse" x1="24.8891" y1="12.5332" x2="27.7163" y2="12.5332">
			<stop  offset="0" style="stop-color:#79D4A9"/>
			<stop  offset="0.4308" style="stop-color:#96B8BA"/>
			<stop  offset="0.9615" style="stop-color:#125C89"/>
		</linearGradient>
		<ellipse class="st2" cx="26.3" cy="12.5" rx="1.4" ry="1.9"/>
	</g>
	<g>
		<text transform="matrix(1 0 0 1 7.2017 33.9102)" class="st3 st4 st5 st6">UPRINT</text>
	</g>
</g>
</svg>
